<?xml version="1.0" standalone="no"?>
<!DOCTYPE svg PUBLIC "-//W3C//DTD SVG 1.1//EN" "http://www.w3.org/Graphics/SVG/1.1/DTD/svg11.dtd" >
<svg xmlns="http://www.w3.org/2000/svg">
<metadata></metadata>
<defs>
<font id="cooper_hewittmedium" horiz-adv-x="1228" >
<font-face units-per-em="2048" ascent="1536" descent="-512" />
<missing-glyph horiz-adv-x="409" />
<glyph horiz-adv-x="0" />
<glyph unicode="&#xd;" horiz-adv-x="681" />
<glyph unicode=" "  horiz-adv-x="409" />
<glyph unicode="&#x09;" horiz-adv-x="409" />
<glyph unicode="&#xa0;" horiz-adv-x="409" />
<glyph unicode="!" horiz-adv-x="479" d="M113 1597h254l-56 -1181h-143zM123 0v233h233v-233h-233z" />
<glyph unicode="&#x22;" horiz-adv-x="772" d="M125 1597h211l-19 -589h-155zM434 1597h213l-39 -589h-153z" />
<glyph unicode="#" d="M61 451v186h205l68 324h-164v186h203l94 450h186l-94 -450h256l94 450h187l-95 -450h166v-186h-204l-68 -324h164v-186h-203l-94 -451h-187l95 451h-256l-95 -451h-186l94 451h-166zM453 637h256l67 324h-256z" />
<glyph unicode="$" d="M115 553v12h209q0 -150 94 -221l94 395q-201 33 -292 119t-91 232v16q0 180 132 283.5t353 103.5q29 0 78 -4l56 231h170l-64 -266q248 -94 248 -410v-30h-209q0 170 -86 243l-90 -374q203 -31 301 -116t98 -245v-16q0 -186 -129 -293t-360 -107q-33 0 -95 5l-55 -234 h-170l66 273q-258 106 -258 403zM342 1108q0 -82 48 -130t163 -71l96 406q-10 2 -33 2h-8q-117 0 -191.5 -52.5t-74.5 -144.5v-10zM573 285q16 -2 50 -2h8q123 0 196.5 56t73.5 157v10q0 86 -54 136t-171 73z" />
<glyph unicode="%" horiz-adv-x="1931" d="M70 1235v22q0 174 101 269.5t259 95.5q84 0 162 -33q129 -53 352 -53q109 0 228.5 21.5t170.5 44.5v-117l-616 -1485h-188l577 1389q-2 0 -23.5 -4.5t-45 -8.5t-60.5 -8t-74 -4q-68 0 -139 10q14 -61 14 -117v-22q0 -172 -100 -267.5t-258 -95.5t-259 95.5t-101 267.5z M233 1231q0 -90 53.5 -142.5t137.5 -52.5h12q82 0 136.5 52.5t54.5 142.5v33q0 90 -54.5 142t-136.5 52h-12q-84 0 -137.5 -52t-53.5 -142v-33zM1143 340v22q0 172 100 267.5t258 95.5t258.5 -95t100.5 -268v-22q0 -174 -100.5 -269.5t-258.5 -95.5t-258 95.5t-100 269.5z M1305 334q0 -90 54 -142.5t136 -52.5h12q82 0 136.5 52.5t54.5 142.5v33q0 90 -54.5 142t-136.5 52h-12q-82 0 -136 -52t-54 -142v-33z" />
<glyph unicode="&#x26;" horiz-adv-x="1374" d="M70 422v20q0 246 247 424q-96 111 -138 194t-42 195v23q0 152 103.5 248t300.5 96q195 0 298 -96t103 -248v-23q0 -61 -20.5 -115.5t-48 -92t-80 -80.5t-88 -68t-101.5 -63l371 -414q78 156 78 379v8h217v-4q0 -324 -154 -541l236 -264h-258l-111 123 q-183 -148 -451 -148q-217 0 -339.5 119t-122.5 328zM281 436q0 -129 69.5 -201.5t206.5 -72.5h10q164 0 289 102l-416 463q-160 -121 -159 -274v-17zM350 1255q0 -131 129 -282q63 39 99 63.5t76 60.5t58.5 74.5t18.5 83.5v17q0 72 -48 121t-136 49h-15q-86 0 -134 -49 t-48 -121v-17z" />
<glyph unicode="'" horiz-adv-x="479" d="M125 1597h229l-37 -589h-155z" />
<glyph unicode="(" horiz-adv-x="684" d="M94 717v41q0 322 79 532.5t233 429.5h219q-158 -229 -240 -447t-82 -515v-41q0 -297 82 -515t240 -448h-219q-154 219 -233 430t-79 533z" />
<glyph unicode=")" horiz-adv-x="684" d="M59 -246q158 229 240 447.5t82 515.5v41q0 297 -82 515t-240 447h220q154 -219 232.5 -429.5t78.5 -532.5v-41q0 -322 -79 -533t-232 -430h-220z" />
<glyph unicode="*" horiz-adv-x="813" d="M16 1307l43 129l273 -101l-35 -108zM125 977l178 227l92 -65l-162 -242zM340 1638h133l-10 -288h-113zM418 1139l92 65l178 -227l-108 -80zM481 1335l273 101l43 -129l-281 -80z" />
<glyph unicode="+" d="M94 705v188h426v426h189v-426h426v-188h-426v-426h-189v426h-426z" />
<glyph unicode="," horiz-adv-x="479" d="M86 -145q139 0 156 145h-119v233h233v-184q0 -309 -270 -309v115z" />
<glyph unicode="-" horiz-adv-x="690" d="M82 625v184h526v-184h-526z" />
<glyph unicode="." horiz-adv-x="479" d="M123 0v233h233v-233h-233z" />
<glyph unicode="/" horiz-adv-x="737" d="M31 -246l471 1966h205l-471 -1966h-205z" />
<glyph unicode="0" d="M115 457v684q0 219 125 350t374.5 131t374.5 -131t125 -350v-684q0 -219 -125 -350.5t-374.5 -131.5t-374.5 131.5t-125 350.5zM326 469q0 -307 282 -307h13q283 0 282 307v659q0 307 -282 308h-13q-283 0 -282 -308v-659z" />
<glyph unicode="1" d="M94 1264l500 340h145v-1416h394v-188h-996v188h393v1145l-331 -225z" />
<glyph unicode="2" d="M106 0v131l664 715q80 84 110.5 145.5t30.5 141.5v20q0 133 -78.5 208t-209.5 75h-17q-147 0 -219 -88t-72 -283h-209v45q0 512 508 512q248 0 378 -122t130 -310v-29q0 -129 -39 -215t-143 -196l-524 -564l147 2h559v-188h-1016z" />
<glyph unicode="3" d="M96 487v25h209q0 -350 299 -350h21q127 0 212 68.5t85 201.5v27q0 129 -78 196.5t-205 67.5h-229v184h221q127 0 203.5 62.5t76.5 187.5v17q0 119 -78.5 190.5t-207.5 71.5h-21q-145 0 -217 -87t-72 -284h-209v45q0 512 508 512q248 0 378 -121t130 -303v-35 q0 -248 -221 -348q231 -100 232 -364v-35q0 -184 -140.5 -312.5t-378.5 -128.5q-258 0 -388 133.5t-130 378.5z" />
<glyph unicode="4" d="M63 397v144l670 1056h199v-1011h233v-189h-233v-397h-209v397h-660zM295 582l151 4h277v493l4 178z" />
<glyph unicode="5" d="M96 487v25h209q0 -350 299 -350h21q127 0 212 81t85 240v31q0 162 -86 242t-220 80h-16q-100 0 -188 -48.5t-127 -138.5l-176 60l36 888h967v-188h-786l-23 -481q135 92 320 92q231 0 370.5 -134t139.5 -372v-31q0 -240 -140.5 -374t-378.5 -134q-258 0 -388 133.5 t-130 378.5z" />
<glyph unicode="6" d="M100 547v22q0 432 226 734q239 319 737 319v-190q-379 0 -571 -250q-98 -127 -144 -301q131 125 322 125q211 0 340 -131.5t129 -372.5v-21q0 -244 -137.5 -375t-380.5 -131q-238 0 -379.5 153t-141.5 419zM309 532q0 -172 87 -270t218 -98h13q137 0 219 82t82 229v35 q0 150 -79 228.5t-214 78.5h-10q-102 0 -186.5 -52t-129.5 -140v-93z" />
<glyph unicode="7" d="M102 1024v573h1037v-129l-598 -1468h-224l584 1413l-217 -4h-393v-385h-189z" />
<glyph unicode="8" d="M96 412v34q0 266 234 369q-223 98 -224 352v35q0 182 130.5 301t378 119t377.5 -119t130 -301v-35q0 -254 -223 -352q233 -104 234 -369v-34q0 -184 -139.5 -310.5t-379 -126.5t-379 126t-139.5 311zM307 428q0 -131 85 -198.5t212 -67.5h21q127 0 212 67.5t85 198.5v27 q0 129 -78 198.5t-205 69.5h-49q-127 0 -205 -69.5t-78 -198.5v-27zM317 1159q0 -123 77 -187.5t204 -64.5h33q127 0 203.5 64.5t76.5 187.5v19q0 117 -78.5 187.5t-207.5 70.5h-21q-129 0 -208 -71t-79 -187v-19z" />
<glyph unicode="9" d="M90 1096v20q0 244 137.5 375t380.5 131q238 0 379 -152.5t141 -418.5v-23q0 -432 -225 -733q-239 -320 -737 -320v191q379 0 571 250q96 123 144 299q-133 -123 -322 -123q-211 0 -340 131t-129 373zM301 1087q0 -150 79 -228.5t214 -78.5h10q100 0 184 51.5t130 139.5 q2 25 2 73v21q0 172 -87.5 270.5t-218.5 98.5h-12q-137 0 -219 -82t-82 -230v-35z" />
<glyph unicode=":" horiz-adv-x="479" d="M123 0v233h233v-233h-233zM123 682v233h233v-233h-233z" />
<glyph unicode=";" horiz-adv-x="479" d="M86 -145q139 0 156 145h-119v233h233v-184q0 -309 -270 -309v115zM123 682v233h233v-233h-233z" />
<glyph unicode="&#x3c;" d="M94 696v205l1041 461v-209l-828 -354l828 -355v-208z" />
<glyph unicode="=" d="M94 489v191h1041v-191h-1041zM94 918v190h1041v-190h-1041z" />
<glyph unicode="&#x3e;" d="M94 236v208l828 355l-828 354v209l1041 -461v-205z" />
<glyph unicode="?" horiz-adv-x="962" d="M51 1042v27q0 266 98.5 409.5t339.5 143.5q221 0 321.5 -114.5t100.5 -307.5q0 -113 -35.5 -197.5t-87 -141t-103.5 -112t-92 -139.5t-46 -194h-141q-6 113 22.5 209t72.5 164.5t89 130t77.5 130t32.5 138.5q0 248 -211 248q-127 0 -178 -97.5t-51 -296.5h-209zM360 0 v233h234v-233h-234z" />
<glyph unicode="@" horiz-adv-x="1988" d="M63 553v82q0 461 266.5 724t702.5 263q186 0 345 -49t283 -147.5t195.5 -258t71.5 -364.5v-62q0 -344 -144.5 -481t-408.5 -137h-135l-22 139q-102 -164 -306 -164q-195 0 -294 135.5t-99 344.5v53q0 209 99.5 344t293.5 135q203 0 306 -166l22 141h162l-17 -292v-525 q133 4 212 41t126 141.5t47 290.5v62q0 145 -40.5 261t-109.5 191.5t-163 126t-197.5 72t-220.5 21.5h-12q-367 0 -589 -222.5t-222 -617.5v-82q0 -403 224 -621.5t597 -218.5h13q377 0 673 217l86 -114q-315 -250 -766 -250q-440 0 -709.5 263t-269.5 724zM715 578 q0 -143 61.5 -227.5t186.5 -84.5q147 0 235 142v393q-88 141 -235 141q-125 0 -186.5 -84t-61.5 -227v-53z" />
<glyph unicode="A" horiz-adv-x="1271" d="M47 0l440 1610h297l441 -1610h-230l-100 385h-516l-100 -385h-232zM428 573h418l-209 797z" />
<glyph unicode="B" horiz-adv-x="1232" d="M137 0v1597h449q104 0 188 -20.5t155.5 -66.5t111.5 -129t40 -199v-41q0 -227 -204 -318q246 -88 245 -346v-41q0 -231 -142 -333.5t-366 -102.5h-477zM350 188h275q123 0 201.5 61.5t78.5 194.5v25q0 131 -79.5 193.5t-200.5 62.5h-275v-537zM350 913h240 q121 0 197.5 55.5t76.5 178.5v29q0 123 -76.5 178t-197.5 55h-240v-496z" />
<glyph unicode="C" horiz-adv-x="1290" d="M102 758v82q0 412 136.5 597t427.5 185q266 0 397 -136t131 -417v-63h-215q0 221 -69.5 324.5t-229.5 103.5h-14q-184 0 -264 -142.5t-80 -451.5v-82q0 -309 79.5 -451.5t264.5 -142.5h14q299 0 299 366h215v-20q0 -535 -528 -535q-291 0 -427.5 185.5t-136.5 597.5z" />
<glyph unicode="D" horiz-adv-x="1325" d="M137 0v1597h449q324 0 480.5 -176t156.5 -581v-82q0 -406 -157 -582t-480 -176h-449zM350 188h221q223 0 328 134.5t105 435.5v82q0 301 -104.5 435t-328.5 134h-221v-1221z" />
<glyph unicode="E" horiz-adv-x="1140" d="M137 0v1597h922v-188h-709v-500h606v-188h-606v-533h709v-188h-922z" />
<glyph unicode="F" horiz-adv-x="1077" d="M137 0v1597h899v-188h-686v-500h584v-188h-584v-721h-213z" />
<glyph unicode="G" horiz-adv-x="1341" d="M102 758v82q0 408 143.5 595t436.5 187q268 0 400 -136t132 -417v-63h-215q0 223 -69.5 325.5t-233.5 102.5h-16q-188 0 -274.5 -144.5t-86.5 -449.5v-82q0 -309 88.5 -451.5t288.5 -142.5h17q180 0 288 100v363h-251v188h464v-653q-195 -187 -512 -187 q-307 0 -453.5 186.5t-146.5 596.5z" />
<glyph unicode="H" horiz-adv-x="1325" d="M137 0v1597h213v-688h625v688h213v-1597h-213v721h-625v-721h-213z" />
<glyph unicode="I" horiz-adv-x="507" d="M147 0v1597h213v-1597h-213z" />
<glyph unicode="J" horiz-adv-x="1044" d="M55 492v38h201q0 -193 51 -279.5t172 -86.5q123 0 174.5 85t51.5 271v1077h213v-1108q0 -514 -433 -514q-231 0 -330.5 129t-99.5 388z" />
<glyph unicode="K" horiz-adv-x="1198" d="M137 0v1597h213v-788l529 788h258l-465 -661l465 -936h-238l-360 748l-189 -269v-479h-213z" />
<glyph unicode="L" horiz-adv-x="1026" d="M137 0v1597h213v-1409h645v-188h-858z" />
<glyph unicode="M" horiz-adv-x="1693" d="M137 0v1597h309l400 -1228l401 1228h309v-1597h-213v885l9 342l-402 -1227h-207l-401 1227l8 -342v-885h-213z" />
<glyph unicode="N" horiz-adv-x="1366" d="M137 0v1597h228l669 -1220l-8 354v866h203v-1597h-228l-669 1221l8 -355v-866h-203z" />
<glyph unicode="O" horiz-adv-x="1345" d="M102 758v82q0 410 139.5 596t432.5 186q291 0 430 -186.5t139 -595.5v-82q0 -410 -139 -596.5t-430 -186.5q-293 0 -432.5 186.5t-139.5 596.5zM322 758q0 -307 81 -450.5t263 -143.5h14q182 0 263 143.5t81 450.5v82q0 307 -81 450.5t-263 143.5h-14q-182 0 -263 -143.5 t-81 -450.5v-82z" />
<glyph unicode="P" horiz-adv-x="1200" d="M137 0v1597h473q512 0 512 -467v-40q0 -467 -512 -467h-260v-623h-213zM350 809h266q53 0 98.5 11t91.5 40t72.5 89.5t26.5 146.5v26q0 86 -26.5 146.5t-72.5 89t-91 40t-99 11.5h-266v-600z" />
<glyph unicode="Q" horiz-adv-x="1345" d="M102 758v82q0 410 139.5 596t432.5 186q291 0 430 -186.5t139 -595.5v-82q0 -598 -311 -735l88 -228h-178l-72 187q-45 -7 -96 -7q-293 0 -432.5 186.5t-139.5 596.5zM322 758q0 -307 80.5 -450.5t263.5 -143.5h36l-122 325h170l108 -278q166 113 166 547v82 q0 307 -81 450.5t-263 143.5h-14q-182 0 -263 -143.5t-81 -450.5v-82z" />
<glyph unicode="R" horiz-adv-x="1224" d="M137 0v1597h473q512 0 512 -467v-40q0 -334 -266 -431l266 -659h-231l-242 623h-299v-623h-213zM350 809h266q53 0 98.5 11t91.5 40t72.5 89.5t26.5 146.5v26q0 86 -26.5 146.5t-72.5 89t-91 40t-99 11.5h-266v-600z" />
<glyph unicode="S" horiz-adv-x="1251" d="M84 510v20h213q0 -184 86 -275t235 -91h17q143 0 228 71.5t85 192.5v16q0 123 -80.5 188.5t-275.5 92.5q-256 35 -374 141.5t-118 288.5v23q0 205 141.5 324.5t385.5 119.5q270 0 397 -131t127 -395v-49h-213q0 203 -72.5 295t-236.5 92h-15q-131 0 -213 -65.5 t-82 -174.5v-16q0 -119 75 -183.5t270 -91.5q262 -35 382.5 -140.5t120.5 -301.5v-23q0 -217 -143 -340t-397 -123q-266 0 -404.5 136.5t-138.5 398.5z" />
<glyph unicode="T" horiz-adv-x="1085" d="M43 1409v188h999v-188h-393v-1409h-213v1409h-393z" />
<glyph unicode="U" horiz-adv-x="1325" d="M127 498v1099h213v-1089q0 -188 76 -266t248 -78q170 0 245.5 77.5t75.5 266.5v1089h213v-1099q0 -276 -126.5 -399.5t-407.5 -123.5q-283 0 -410 123t-127 400z" />
<glyph unicode="V" horiz-adv-x="1271" d="M47 1597h229l361 -1370l358 1370h230l-441 -1609h-297z" />
<glyph unicode="W" horiz-adv-x="1863" d="M68 1597h223l215 -1331l289 1331h274l289 -1331l215 1331h223l-287 -1609h-280l-297 1372l-297 -1372h-281z" />
<glyph unicode="X" horiz-adv-x="1282" d="M53 0l436 823l-436 774h250l338 -622l338 622h248l-436 -776l436 -821h-240l-346 674l-346 -674h-242z" />
<glyph unicode="Y" horiz-adv-x="1216" d="M33 1597h231l344 -847l344 847h232l-469 -1112v-485h-213v485z" />
<glyph unicode="Z" horiz-adv-x="1177" d="M82 0v147l733 1268l-270 -6h-443v188h973v-147l-733 -1268l270 6h484v-188h-1014z" />
<glyph unicode="[" horiz-adv-x="684" d="M131 -246v1966h475v-186h-268v-1593h268v-187h-475z" />
<glyph unicode="\" horiz-adv-x="735" d="M31 1720h205l471 -1966h-205z" />
<glyph unicode="]" horiz-adv-x="684" d="M80 -59h266v1593h-266v186h475v-1966h-475v187z" />
<glyph unicode="^" d="M51 555l461 1042h205l461 -1042h-209l-355 829l-354 -829h-209z" />
<glyph unicode="_" horiz-adv-x="655" d="M94 -129h467v-184h-467v184z" />
<glyph unicode="`" horiz-adv-x="1024" d="M205 1597h225l186 -354h-208z" />
<glyph unicode="a" horiz-adv-x="1075" d="M82 283v20q0 162 98.5 236.5t268.5 99.5l301 47v16q0 127 -48.5 185.5t-169.5 58.5q-215 0 -215 -219h-194v18q0 154 94 259.5t322 105.5q225 0 320 -105.5t95 -302.5v-395l15 -307h-178l-21 139q-131 -164 -369 -164q-156 0 -237.5 85t-81.5 223zM285 307q0 -68 46 -114 t136 -46q188 0 283 142v264l-271 -45q-195 -31 -194 -184v-17z" />
<glyph unicode="b" horiz-adv-x="1126" d="M111 0l14 307v1331h205v-667q104 139 299 139q211 0 311 -146.5t100 -392.5v-57q0 -246 -100 -392.5t-311 -146.5q-219 0 -320 166l-20 -141h-178zM330 301q96 -145 245 -145q258 0 259 358v57q0 358 -259 359q-149 -1 -245 -146v-483z" />
<glyph unicode="c" horiz-adv-x="1071" d="M86 514v57q0 242 116.5 390.5t350.5 148.5q213 0 323.5 -112.5t110.5 -274.5v-43h-196q0 115 -57.5 182.5t-176.5 67.5q-133 0 -198.5 -94.5t-65.5 -264.5v-57q0 -170 65.5 -264t198.5 -94q119 0 176.5 64.5t57.5 164.5h196v-37q0 -156 -110.5 -264.5t-323.5 -108.5 q-233 0 -350 148.5t-117 390.5z" />
<glyph unicode="d" horiz-adv-x="1134" d="M94 514v57q0 246 100.5 392.5t311.5 146.5q190 0 297 -137v665h207v-1331l14 -307h-178l-23 141q-104 -166 -317 -166q-211 0 -311.5 146.5t-100.5 392.5zM301 514q0 -358 258 -358q154 0 244 145v483q-90 145 -244 146q-258 0 -258 -359v-57z" />
<glyph unicode="e" horiz-adv-x="1122" d="M86 518v49q0 242 122 392.5t357 150.5q233 0 352 -150.5t119 -392.5v-102h-743q12 -326 285 -326q125 0 193.5 63.5t68.5 145.5h196v-8q0 -147 -120.5 -256t-340.5 -109q-244 0 -366.5 150.5t-122.5 392.5zM293 621h536q-12 325 -268 325q-258 0 -268 -325z" />
<glyph unicode="f" horiz-adv-x="800" d="M55 903v182h170v226q0 352 348 352q111 0 160 -25v-172q-43 16 -112 17q-98 0 -144.5 -41t-46.5 -154v-203h283v-182h-283v-903h-205v903h-170z" />
<glyph unicode="g" horiz-adv-x="1126" d="M86 555v49q0 225 101.5 365.5t310.5 140.5q217 0 319 -164l21 139h178l-15 -307v-778q0 -205 -110.5 -319.5t-341.5 -114.5q-233 0 -338 109.5t-105 291.5v33h197q0 -133 56.5 -197.5t187.5 -64.5t190.5 65.5t59.5 202.5v178q-102 -135 -299 -135q-209 0 -310.5 138.5 t-101.5 367.5zM293 555q0 -156 65.5 -241t192.5 -85q154 0 246 146v409q-96 145 -246 146q-125 0 -191.5 -88t-66.5 -238v-49z" />
<glyph unicode="h" horiz-adv-x="1116" d="M127 0v1638h205v-673q117 145 338 145q164 0 247.5 -99.5t83.5 -258.5v-752h-202v719q0 102 -52.5 156.5t-152.5 54.5q-172 0 -262 -146v-784h-205z" />
<glyph unicode="i" horiz-adv-x="479" d="M123 1311v233h233v-233h-233zM137 0v1085h205v-1085h-205z" />
<glyph unicode="j" horiz-adv-x="479" d="M-166 -238q39 -16 111 -16q98 0 145 41t47 154v1144h205v-1167q0 -352 -348 -352q-111 0 -160 24v172zM123 1311v233h233v-233h-233z" />
<glyph unicode="k" horiz-adv-x="1069" d="M123 0v1638h205v-1058l442 505h250l-369 -409l369 -676h-238l-272 518l-182 -205v-313h-205z" />
<glyph unicode="l" horiz-adv-x="479" d="M137 0v1638h205v-1638h-205z" />
<glyph unicode="m" horiz-adv-x="1689" d="M113 1085h176l22 -141q111 166 332 166q213 0 281 -176q111 176 340 176q152 0 230.5 -90t78.5 -248v-772h-203v741q0 188 -182 189q-145 0 -236 -142v-788h-204v741q0 188 -181 189q-152 0 -235 -142v-788h-205v778z" />
<glyph unicode="n" horiz-adv-x="1116" d="M113 1085h176l22 -149q117 174 359 174q164 0 247.5 -99.5t83.5 -258.5v-752h-202v719q0 102 -52.5 156.5t-152.5 54.5q-172 0 -262 -146v-784h-205v778z" />
<glyph unicode="o" horiz-adv-x="1122" d="M86 514v57q0 242 119 390.5t356.5 148.5t356 -148.5t118.5 -390.5v-57q0 -242 -118.5 -390.5t-356 -148.5t-356.5 148.5t-119 390.5zM293 514q0 -168 66.5 -263t201.5 -95t201.5 95t66.5 263v57q0 168 -66.5 263.5t-201.5 95.5t-201.5 -95.5t-66.5 -263.5v-57z" />
<glyph unicode="p" horiz-adv-x="1126" d="M111 1085h178l20 -143q102 168 320 168q211 0 311 -146.5t100 -392.5v-57q0 -246 -100 -392.5t-311 -146.5q-195 0 -299 140v-525h-205v1188zM330 301q96 -145 245 -145q258 0 259 358v57q0 358 -259 359q-149 -1 -245 -146v-483z" />
<glyph unicode="q" horiz-adv-x="1132" d="M90 514v57q0 246 100.5 392.5t311.5 146.5q213 0 315 -166l23 141h178l-14 -307v-1188h-205v521q-106 -135 -297 -136q-211 0 -311.5 146.5t-100.5 392.5zM297 514q0 -358 256 -358q150 0 246 145v483q-96 145 -246 146q-256 0 -256 -359v-57z" />
<glyph unicode="r" horiz-adv-x="716" d="M113 1085h176l20 -139q109 164 299 164h19l12 -2v-197h-37q-178 0 -270 -139v-772h-205v778z" />
<glyph unicode="s" horiz-adv-x="1073" d="M102 328v8h203q1 -197 232 -197q111 0 169 45t58 123q0 86 -55.5 122t-196.5 46q-217 20 -307 90t-90 205v14q0 156 113.5 241t308.5 85q424 0 424 -369v-8h-203q0 104 -51.5 158.5t-169.5 54.5q-102 0 -160 -41t-58 -117q0 -78 50.5 -114.5t191.5 -48.5 q213 -16 312.5 -83t99.5 -218v-13q0 -154 -114 -245t-322 -91q-219 0 -327 101.5t-108 251.5z" />
<glyph unicode="t" horiz-adv-x="841" d="M55 903v182h170v308h205v-308h324v-182h-324v-553q0 -113 46 -153.5t145 -40.5q70 0 112 16v-172q-49 -25 -160 -25q-348 0 -348 353v575h-170z" />
<glyph unicode="u" horiz-adv-x="1116" d="M115 334v751h204v-718q0 -102 52.5 -156.5t150.5 -54.5q168 0 264 145v784h205v-778l15 -307h-179l-22 150q-117 -174 -359 -175q-162 0 -246.5 100.5t-84.5 258.5z" />
<glyph unicode="v" horiz-adv-x="1075" d="M41 1085h215l283 -907l280 907h215l-356 -1085h-281z" />
<glyph unicode="w" horiz-adv-x="1501" d="M55 1085h203l152 -866l217 866h247l218 -866l153 866h203l-219 -1085h-262l-215 864l-215 -864h-265z" />
<glyph unicode="x" horiz-adv-x="1044" d="M43 0l315 553l-315 532h240l239 -417l240 417h239l-317 -532l317 -553h-235l-244 438l-243 -438h-236z" />
<glyph unicode="y" horiz-adv-x="1038" d="M35 1085h221l274 -819l275 819h221l-387 -1038l-150 -457h-239l170 457z" />
<glyph unicode="z" horiz-adv-x="972" d="M66 0v141l557 766l-238 -4h-299v182h801v-141l-557 -766l237 4h340v-182h-841z" />
<glyph unicode="{" horiz-adv-x="684" d="M51 643v188q88 0 127 38t39 137v401q0 313 344 313h45v-186q-92 0 -136 -44t-44 -155v-379q0 -160 -115 -219q115 -61 115 -219v-379q0 -111 44 -154.5t136 -43.5v-187h-45q-344 0 -344 314v401q0 98 -39 136t-127 38z" />
<glyph unicode="|" horiz-adv-x="456" d="M125 -246v1966h205v-1966h-205z" />
<glyph unicode="}" horiz-adv-x="684" d="M80 -59q90 0 134 44t44 154v379q0 158 115 219q-115 59 -115 219v379q0 111 -44 155t-134 44v186h43q344 0 344 -313v-401q0 -100 39 -137.5t129 -37.5v-188q-90 0 -129 -37t-39 -137v-401q0 -313 -344 -314h-43v187z" />
<glyph unicode="~" d="M70 778q119 168 297 168q115 0 263 -70.5t228 -70.5q106 0 195 108l106 -106q-117 -168 -297 -168q-115 0 -263 70.5t-228 70.5q-109 0 -195 -110z" />
<glyph unicode="&#xa1;" horiz-adv-x="479" d="M113 -410l55 1080h143l56 -1080h-254zM123 852v233h233v-233h-233z" />
<glyph unicode="&#xa2;" d="M111 768v63q0 662 526 662q33 0 49 -2l55 229h168l-61 -260q270 -92 270 -438v-53h-207q0 223 -110 297l-232 -963q31 -6 68 -6h8q266 0 266 291h207v-31q0 -213 -119.5 -330.5t-361.5 -117.5q-63 0 -111 8l-57 -240h-168l70 291q-260 135 -260 600zM324 768 q0 -266 98 -383l219 920h-4q-313 0 -313 -474v-63z" />
<glyph unicode="&#xa3;" d="M104 0v188h330q-14 162 -119 492h-211v186h158q-41 164 -41 320q0 195 111.5 315.5t335.5 120.5q461 0 460 -569v-29h-208q0 412 -252 412q-119 0 -177.5 -71t-58.5 -198q0 -113 47 -301h393v-186h-344q78 -287 90 -492h506v-188h-1020z" />
<glyph unicode="&#xa5;" d="M27 1597h235l352 -827l353 827h235l-280 -614h219v-186h-303l-103 -224h406v-186h-420v-387h-213v387h-420v186h404l-101 224h-303v186h217z" />
<glyph unicode="&#xa6;" horiz-adv-x="456" d="M125 -246v920h205v-920h-205zM125 801v919h205v-919h-205z" />
<glyph unicode="&#xa7;" horiz-adv-x="1077" d="M78 784v13q0 184 166 262q-104 72 -105 223v14q0 154 115 240t309 86q424 0 424 -369v-8h-205q0 102 -50 156.5t-169 54.5q-102 0 -159.5 -41t-57.5 -116.5t51.5 -116.5t190.5 -54q213 -16 312 -86.5t99 -228.5v-12q0 -186 -165 -262q102 -76 102 -224v-14 q0 -156 -113.5 -241t-308.5 -85q-424 0 -424 369v8h203q0 -102 51 -156.5t170 -54.5q102 0 158.5 41t56.5 117t-51 117t-189 53q-213 16 -312 87t-99 228zM287 799q0 -88 53 -128t178 -50h33q115 0 176 48t61 130q0 88 -52 128t-177 50h-33q-115 0 -177 -48t-62 -130z" />
<glyph unicode="&#xa8;" horiz-adv-x="1024" d="M205 1309v235h237v-235h-237zM582 1309v235h237v-235h-237z" />
<glyph unicode="&#xa9;" horiz-adv-x="1884" d="M119 799q0 340 241.5 581.5t581.5 241.5t581.5 -241.5t241.5 -581.5t-241.5 -582t-581.5 -242t-581.5 242t-241.5 582zM217 799q0 -301 212 -513t513 -212t513 212t212 513t-212 513t-513 212t-513 -212t-212 -513zM510 772v53q0 129 41 233.5t142.5 175.5t248.5 71 q201 0 301 -101.5t100 -236.5v-37h-182q0 88 -51 146.5t-164 58.5q-125 0 -184.5 -88.5t-59.5 -221.5v-53q0 -133 59.5 -221t184.5 -88q113 0 164 55t51 131h182v-33q0 -129 -100 -226t-301 -97q-147 0 -248.5 70.5t-142.5 175t-41 233.5z" />
<glyph unicode="&#xaa;" horiz-adv-x="825" d="M72 1008v16q0 121 73.5 177t206.5 77l211 31v8q0 84 -31.5 124t-111.5 40q-145 0 -146 -146h-172v15q0 117 74 194.5t248 77.5q176 0 248.5 -78t72.5 -227v-295l13 -227h-160l-16 98q-94 -119 -269 -119q-119 0 -180 65.5t-61 168.5zM92 414v157h662v-157h-662zM252 1032 q0 -45 31 -76.5t92 -31.5q119 0 188 90v184l-180 -31q-131 -23 -131 -125v-10z" />
<glyph unicode="&#xab;" horiz-adv-x="1093" d="M102 600v193l428 309v-193l-278 -213l278 -213v-192zM565 600v193l426 309v-193l-276 -213l276 -213v-192z" />
<glyph unicode="&#xac;" d="M94 965v190h1041v-733h-191v543h-850z" />
<glyph unicode="&#xad;" horiz-adv-x="690" d="M82 625v184h526v-184h-526z" />
<glyph unicode="&#xae;" horiz-adv-x="675" d="M37 1362q0 125 88 213t213 88t213 -88t88 -213t-88 -213t-213 -88t-213 88t-88 213zM86 1361.5q0 -104.5 73.5 -178t178 -73.5t178.5 73.5t74 178t-74 178.5t-178.5 74t-178 -74t-73.5 -178.5zM197 1186v352h163q51 0 85 -26.5t34 -81.5v-15q0 -74 -61 -98l61 -131h-90 l-51 121h-53v-121h-88zM285 1376h57q49 0 49 43v6q0 43 -49 43h-57v-92z" />
<glyph unicode="&#xaf;" horiz-adv-x="1024" d="M250 1327v186h524v-186h-524z" />
<glyph unicode="&#xb0;" horiz-adv-x="819" d="M90 1294v11q0 145 90 231t229.5 86t229.5 -86t90 -231v-11q0 -143 -90 -229t-229.5 -86t-229.5 86t-90 229zM229 1292q0 -78 50.5 -126t123.5 -48h13q74 0 124 48t50 126v15q0 80 -50.5 127t-123.5 47h-13q-74 0 -124 -47.5t-50 -126.5v-15z" />
<glyph unicode="&#xb1;" d="M94 311v191h1041v-191h-1041zM94 893v190h426v263h189v-263h426v-190h-426v-260h-189v260h-426z" />
<glyph unicode="&#xb2;" horiz-adv-x="614" d="M43 799v108l305 336q51 55 51 105v10q0 102 -88 102h-10q-86 0 -86 -129h-172v21q0 258 264 258q135 0 199.5 -65.5t64.5 -155.5v-21q0 -66 -20.5 -108.5t-69.5 -96.5l-196 -215h286v-149h-528z" />
<glyph unicode="&#xb3;" horiz-adv-x="614" d="M37 1040v15h172q0 -121 92 -121h10q39 0 67 25.5t28 72.5v10q0 43 -25 65.5t-68 22.5h-108v152h106q88 0 88 84v12q0 37 -24.5 59.5t-63.5 22.5h-10q-86 0 -86 -129h-172v21q0 258 264 258q135 0 199.5 -64.5t64.5 -148.5v-19q0 -117 -92 -172q96 -59 96 -174v-18 q0 -88 -67.5 -159t-200.5 -71q-270 0 -270 256z" />
<glyph unicode="&#xb4;" horiz-adv-x="1024" d="M408 1243l186 354h225l-203 -354h-208z" />
<glyph unicode="&#xb6;" horiz-adv-x="1077" d="M63 1090v40q0 467 515 467h372v-1597h-213v1409h-94v-1409h-131v625q-449 29 -449 465zM281 1096q0 -252 231 -285v594q-231 -29 -231 -283v-26z" />
<glyph unicode="&#xb7;" horiz-adv-x="479" d="M123 600v234h233v-234h-233z" />
<glyph unicode="&#xb8;" horiz-adv-x="1232" d="M319 -391l37 106q57 -33 144 -32q111 0 110 59q0 55 -116 55l-66 -6l-35 51l60 158h118l-39 -102q90 -2 149.5 -43t59.5 -123q0 -168 -223 -168q-127 0 -199 45z" />
<glyph unicode="&#xb9;" horiz-adv-x="614" d="M35 1430l250 167h129v-649h172v-149h-518v149h174v438l-121 -81z" />
<glyph unicode="&#xba;" horiz-adv-x="874" d="M76 1176v47q0 180 90 289.5t270 109.5t271.5 -109.5t91.5 -289.5v-47q0 -182 -91.5 -292t-271.5 -110t-270 109.5t-90 292.5zM92 414v157h690v-157h-690zM258 1176q0 -242 178 -242q180 0 180 242v47q0 242 -180 241q-178 0 -178 -241v-47z" />
<glyph unicode="&#xbb;" horiz-adv-x="1093" d="M102 291v192l275 213l-275 213v193l428 -309v-193zM565 291v192l275 213l-275 213v193l426 -309v-193z" />
<glyph unicode="&#xbc;" horiz-adv-x="1638" d="M35 1430l250 167h129v-649h172v-149h-518v149h174v438l-121 -81zM123 0l1180 1597h213l-1180 -1597h-213zM1051 170v121l315 508h162v-477h82v-152h-82v-170h-172v170h-305zM1229 317l49 5h78v149l2 53z" />
<glyph unicode="&#xbd;" horiz-adv-x="1638" d="M35 1430l250 167h129v-649h172v-149h-518v149h174v438l-121 -81zM123 0l1180 1597h213l-1180 -1597h-213zM1067 0v109l305 335q51 55 51 105v10q0 102 -88 103h-10q-86 0 -86 -130h-172v21q0 258 264 258q135 0 199.5 -65.5t64.5 -155.5v-21q0 -66 -20.5 -108.5 t-69.5 -95.5l-196 -215h286v-150h-528z" />
<glyph unicode="&#xbe;" horiz-adv-x="1638" d="M37 1040v15h172q0 -121 92 -121h10q39 0 67 25.5t28 72.5v10q0 43 -25 65.5t-68 22.5h-108v152h106q88 0 88 84v12q0 37 -24.5 59.5t-63.5 22.5h-10q-86 0 -86 -129h-172v21q0 258 264 258q135 0 199.5 -64.5t64.5 -148.5v-19q0 -117 -92 -172q96 -59 96 -174v-18 q0 -88 -67.5 -159t-200.5 -71q-270 0 -270 256zM123 0l1180 1597h213l-1180 -1597h-213zM1051 170v121l315 508h162v-477h82v-152h-82v-170h-172v170h-305zM1229 317l49 5h78v149l2 53z" />
<glyph unicode="&#xbf;" horiz-adv-x="962" d="M51 -53q0 111 36 194.5t87 136t103.5 102.5t92.5 122.5t44 167.5h143q4 -96 -23.5 -181.5t-72.5 -147.5t-90 -120.5t-77 -124t-32 -131.5q0 -213 211 -213q129 0 179 90t50 281h209v-29q0 -256 -98 -392t-340 -136q-213 0 -317.5 106.5t-104.5 274.5zM369 852v233h233 v-233h-233z" />
<glyph unicode="&#xc0;" horiz-adv-x="1271" d="M47 0l440 1610h297l441 -1610h-230l-100 385h-516l-100 -385h-232zM403 1946h220l118 -226h-209zM428 573h418l-209 797z" />
<glyph unicode="&#xc1;" horiz-adv-x="1271" d="M47 0l440 1610h297l441 -1610h-230l-100 385h-516l-100 -385h-232zM428 573h418l-209 797zM532 1720l119 226h219l-129 -226h-209z" />
<glyph unicode="&#xc2;" horiz-adv-x="1271" d="M47 0l440 1610h297l441 -1610h-230l-100 385h-516l-100 -385h-232zM305 1720l232 226h200l232 -226h-197l-135 117l-135 -117h-197zM428 573h418l-209 797z" />
<glyph unicode="&#xc3;" horiz-adv-x="1271" d="M47 0l440 1610h297l441 -1610h-230l-100 385h-516l-100 -385h-232zM303 1741q0 109 48 159t130 50q72 0 164 -52.5t127 -52.5q72 0 72 80h127q0 -109 -48.5 -159t-129.5 -50q-72 0 -164 52.5t-127 52.5q-72 0 -72 -80h-127zM428 573h418l-209 797z" />
<glyph unicode="&#xc4;" horiz-adv-x="1271" d="M47 0l440 1610h297l441 -1610h-230l-100 385h-516l-100 -385h-232zM369 1749v168h202v-168h-202zM428 573h418l-209 797zM702 1749v168h203v-168h-203z" />
<glyph unicode="&#xc5;" horiz-adv-x="1271" d="M47 0l440 1610h25q-76 59 -76 159q0 82 58.5 141.5t142.5 59.5t142.5 -59.5t58.5 -141.5q0 -98 -78 -159h24l441 -1610h-230l-100 385h-516l-100 -385h-232zM428 573h418l-209 797zM526 1769q0 -47 33 -79.5t78 -32.5t78 32.5t33 79.5q0 45 -33 78t-78 33t-78 -33 t-33 -78z" />
<glyph unicode="&#xc6;" horiz-adv-x="1748" d="M31 0l581 1597h1055v-188h-733l72 -500h559v-188h-533l76 -533h559v-188h-758l-51 397h-461l-137 -397h-229zM463 586h371l-101 774z" />
<glyph unicode="&#xc7;" horiz-adv-x="1290" d="M102 758v82q0 412 136.5 597t427.5 185q266 0 397 -136t131 -417v-63h-215q0 221 -69.5 324.5t-229.5 103.5h-14q-184 0 -264 -142.5t-80 -451.5v-82q0 -309 79.5 -451.5t264.5 -142.5h14q299 0 299 366h215v-20q0 -500 -461 -533l-31 -79q90 -2 149.5 -43t59.5 -123 q0 -168 -223 -168q-127 0 -199 45l37 106q57 -33 144 -32q111 0 110 59q0 55 -116 55l-66 -6l-35 51l51 135q-264 16 -388 202t-124 579z" />
<glyph unicode="&#xc8;" horiz-adv-x="1140" d="M137 0v1597h922v-188h-709v-500h606v-188h-606v-533h709v-188h-922zM377 1946h219l119 -226h-209z" />
<glyph unicode="&#xc9;" horiz-adv-x="1140" d="M137 0v1597h922v-188h-709v-500h606v-188h-606v-533h709v-188h-922zM506 1720l119 226h219l-129 -226h-209z" />
<glyph unicode="&#xca;" horiz-adv-x="1140" d="M137 0v1597h922v-188h-709v-500h606v-188h-606v-533h709v-188h-922zM279 1720l231 226h201l231 -226h-197l-135 117l-135 -117h-196z" />
<glyph unicode="&#xcb;" horiz-adv-x="1140" d="M137 0v1597h922v-188h-709v-500h606v-188h-606v-533h709v-188h-922zM342 1749v168h203v-168h-203zM676 1749v168h203v-168h-203z" />
<glyph unicode="&#xcc;" horiz-adv-x="507" d="M20 1946h220l118 -226h-208zM147 0v1597h213v-1597h-213z" />
<glyph unicode="&#xcd;" horiz-adv-x="507" d="M147 0v1597h213v-1597h-213zM150 1720l118 226h219l-129 -226h-208z" />
<glyph unicode="&#xce;" horiz-adv-x="507" d="M-78 1720l232 226h200l232 -226h-197l-135 117l-135 -117h-197zM147 0v1597h213v-1597h-213z" />
<glyph unicode="&#xcf;" horiz-adv-x="507" d="M-14 1749v168h202v-168h-202zM147 0v1597h213v-1597h-213zM319 1749v168h203v-168h-203z" />
<glyph unicode="&#xd0;" horiz-adv-x="1447" d="M33 721v188h227v688h449q324 0 480.5 -176t156.5 -581v-82q0 -406 -157 -582t-480 -176h-449v721h-227zM473 188h221q223 0 327.5 134.5t104.5 435.5v82q0 301 -104 435t-328 134h-221v-500h401v-188h-401v-533z" />
<glyph unicode="&#xd1;" horiz-adv-x="1366" d="M137 0v1597h228l669 -1220l-8 354v866h203v-1597h-228l-669 1221l8 -355v-866h-203zM350 1741q0 109 48 159t130 50q70 0 164 -52.5t127 -52.5q72 0 72 80h127q0 -109 -48 -159t-130 -50q-70 0 -164 52.5t-127 52.5q-72 0 -72 -80h-127z" />
<glyph unicode="&#xd2;" horiz-adv-x="1345" d="M102 758v82q0 410 139.5 596t432.5 186q291 0 430 -186.5t139 -595.5v-82q0 -410 -139 -596.5t-430 -186.5q-293 0 -432.5 186.5t-139.5 596.5zM322 758q0 -307 81 -450.5t263 -143.5h14q182 0 263 143.5t81 450.5v82q0 307 -81 450.5t-263 143.5h-14q-182 0 -263 -143.5 t-81 -450.5v-82zM440 1946h219l119 -226h-209z" />
<glyph unicode="&#xd3;" horiz-adv-x="1345" d="M102 758v82q0 410 139.5 596t432.5 186q291 0 430 -186.5t139 -595.5v-82q0 -410 -139 -596.5t-430 -186.5q-293 0 -432.5 186.5t-139.5 596.5zM322 758q0 -307 81 -450.5t263 -143.5h14q182 0 263 143.5t81 450.5v82q0 307 -81 450.5t-263 143.5h-14q-182 0 -263 -143.5 t-81 -450.5v-82zM569 1720l119 226h219l-129 -226h-209z" />
<glyph unicode="&#xd4;" horiz-adv-x="1345" d="M102 758v82q0 410 139.5 596t432.5 186q291 0 430 -186.5t139 -595.5v-82q0 -410 -139 -596.5t-430 -186.5q-293 0 -432.5 186.5t-139.5 596.5zM322 758q0 -307 81 -450.5t263 -143.5h14q182 0 263 143.5t81 450.5v82q0 307 -81 450.5t-263 143.5h-14q-182 0 -263 -143.5 t-81 -450.5v-82zM342 1720l231 226h201l232 -226h-197l-135 117l-135 -117h-197z" />
<glyph unicode="&#xd5;" horiz-adv-x="1345" d="M102 758v82q0 410 139.5 596t432.5 186q291 0 430 -186.5t139 -595.5v-82q0 -410 -139 -596.5t-430 -186.5q-293 0 -432.5 186.5t-139.5 596.5zM322 758q0 -307 81 -450.5t263 -143.5h14q182 0 263 143.5t81 450.5v82q0 307 -81 450.5t-263 143.5h-14q-182 0 -263 -143.5 t-81 -450.5v-82zM340 1741q0 109 48 159t130 50q72 0 164 -52.5t127 -52.5q72 0 72 80h127q0 -109 -48.5 -159t-130.5 -50q-72 0 -164 52.5t-126 52.5q-72 0 -72 -80h-127z" />
<glyph unicode="&#xd6;" horiz-adv-x="1345" d="M102 758v82q0 410 139.5 596t432.5 186q291 0 430 -186.5t139 -595.5v-82q0 -410 -139 -596.5t-430 -186.5q-293 0 -432.5 186.5t-139.5 596.5zM322 758q0 -307 81 -450.5t263 -143.5h14q182 0 263 143.5t81 450.5v82q0 307 -81 450.5t-263 143.5h-14q-182 0 -263 -143.5 t-81 -450.5v-82zM406 1749v168h202v-168h-202zM739 1749v168h203v-168h-203z" />
<glyph unicode="&#xd7;" d="M68 387l411 412l-411 411l135 136l411 -412l412 412l135 -136l-411 -411l411 -412l-135 -135l-412 412l-411 -412z" />
<glyph unicode="&#xd8;" horiz-adv-x="1329" d="M98 0l121 195q-117 190 -117 563v82q0 410 139.5 596t432.5 186q229 0 360 -113l53 88h148l-115 -186q123 -190 123 -571v-82q0 -410 -139 -596.5t-430 -186.5q-238 0 -369 117l-57 -92h-150zM322 758q0 -213 34 -340l564 907q-82 109 -240 109h-14q-182 0 -263 -143.5 t-81 -450.5v-82zM420 279q82 -115 246 -115h14q182 0 263 143.5t81 450.5v82q0 221 -41 352z" />
<glyph unicode="&#xd9;" horiz-adv-x="1325" d="M127 498v1099h213v-1089q0 -188 76 -266t248 -78q170 0 245.5 77.5t75.5 266.5v1089h213v-1099q0 -276 -126.5 -399.5t-407.5 -123.5q-283 0 -410 123t-127 400zM430 1946h219l119 -226h-209z" />
<glyph unicode="&#xda;" horiz-adv-x="1325" d="M127 498v1099h213v-1089q0 -188 76 -266t248 -78q170 0 245.5 77.5t75.5 266.5v1089h213v-1099q0 -276 -126.5 -399.5t-407.5 -123.5q-283 0 -410 123t-127 400zM559 1720l119 226h219l-129 -226h-209z" />
<glyph unicode="&#xdb;" horiz-adv-x="1325" d="M127 498v1099h213v-1089q0 -188 76 -266t248 -78q170 0 245.5 77.5t75.5 266.5v1089h213v-1099q0 -276 -126.5 -399.5t-407.5 -123.5q-283 0 -410 123t-127 400zM332 1720l231 226h201l231 -226h-196l-135 117l-136 -117h-196z" />
<glyph unicode="&#xdc;" horiz-adv-x="1325" d="M127 498v1099h213v-1089q0 -188 76 -266t248 -78q170 0 245.5 77.5t75.5 266.5v1089h213v-1099q0 -276 -126.5 -399.5t-407.5 -123.5q-283 0 -410 123t-127 400zM395 1749v168h203v-168h-203zM729 1749v168h203v-168h-203z" />
<glyph unicode="&#xdd;" horiz-adv-x="1216" d="M33 1597h231l344 -847l344 847h232l-469 -1112v-485h-213v485zM504 1720l119 226h219l-129 -226h-209z" />
<glyph unicode="&#xde;" horiz-adv-x="1200" d="M137 0v1597h213v-311h260q512 0 512 -467v-41q0 -467 -512 -467h-260v-311h-213zM350 500h266q53 0 98.5 11t91.5 40t72.5 89t26.5 146v25q0 86 -26.5 146.5t-72.5 89t-91 40t-99 11.5h-266v-598z" />
<glyph unicode="&#xdf;" horiz-adv-x="1212" d="M121 0v1237q0 195 110.5 310.5t341.5 115.5q223 0 337 -118t114 -308v-16q0 -131 -60.5 -226.5t-187.5 -181.5l82 -55q156 -102 229.5 -198.5t73.5 -217.5v-12q0 -145 -90 -250t-280 -105q-354 0 -355 349v12h180q0 -197 170 -197t170 191q0 76 -55 142.5t-180 148.5 l-168 112v131q137 76 201.5 158t64.5 192q0 123 -60.5 194t-185 71t-186 -71t-61.5 -185v-1223h-205z" />
<glyph unicode="&#xe0;" horiz-adv-x="1075" d="M82 283v20q0 162 98.5 236.5t268.5 99.5l301 47v16q0 127 -48.5 185.5t-169.5 58.5q-215 0 -215 -219h-194v18q0 154 94 259.5t322 105.5q225 0 320 -105.5t95 -302.5v-395l15 -307h-178l-21 139q-131 -164 -369 -164q-156 0 -237.5 85t-81.5 223zM231 1597h226l186 -354 h-209zM285 307q0 -68 46 -114t136 -46q188 0 283 142v264l-271 -45q-195 -31 -194 -184v-17z" />
<glyph unicode="&#xe1;" horiz-adv-x="1075" d="M82 283v20q0 162 98.5 236.5t268.5 99.5l301 47v16q0 127 -48.5 185.5t-169.5 58.5q-215 0 -215 -219h-194v18q0 154 94 259.5t322 105.5q225 0 320 -105.5t95 -302.5v-395l15 -307h-178l-21 139q-131 -164 -369 -164q-156 0 -237.5 85t-81.5 223zM285 307q0 -68 46 -114 t136 -46q188 0 283 142v264l-271 -45q-195 -31 -194 -184v-17zM434 1243l187 354h225l-203 -354h-209z" />
<glyph unicode="&#xe2;" horiz-adv-x="1075" d="M82 283v20q0 162 98.5 236.5t268.5 99.5l301 47v16q0 127 -48.5 185.5t-169.5 58.5q-215 0 -215 -219h-194v18q0 154 94 259.5t322 105.5q225 0 320 -105.5t95 -302.5v-395l15 -307h-178l-21 139q-131 -164 -369 -164q-156 0 -237.5 85t-81.5 223zM172 1243l270 354h193 l270 -354h-192l-174 209l-174 -209h-193zM285 307q0 -68 46 -114t136 -46q188 0 283 142v264l-271 -45q-195 -31 -194 -184v-17z" />
<glyph unicode="&#xe3;" horiz-adv-x="1075" d="M82 283v20q0 162 98.5 236.5t268.5 99.5l301 47v16q0 127 -48.5 185.5t-169.5 58.5q-215 0 -215 -219h-194v18q0 154 94 259.5t322 105.5q225 0 320 -105.5t95 -302.5v-395l15 -307h-178l-21 139q-131 -164 -369 -164q-156 0 -237.5 85t-81.5 223zM186 1321 q0 127 51.5 189.5t135.5 62.5q72 0 168 -55.5t131 -55.5q69 0 69 84h150q0 -127 -51.5 -189.5t-134.5 -62.5q-72 0 -168.5 55.5t-130.5 55.5q-70 0 -70 -84h-150zM285 307q0 -68 46 -114t136 -46q188 0 283 142v264l-271 -45q-195 -31 -194 -184v-17z" />
<glyph unicode="&#xe4;" horiz-adv-x="1075" d="M82 283v20q0 162 98.5 236.5t268.5 99.5l301 47v16q0 127 -48.5 185.5t-169.5 58.5q-215 0 -215 -219h-194v18q0 154 94 259.5t322 105.5q225 0 320 -105.5t95 -302.5v-395l15 -307h-178l-21 139q-131 -164 -369 -164q-156 0 -237.5 85t-81.5 223zM231 1309v235h238v-235 h-238zM285 307q0 -68 46 -114t136 -46q188 0 283 142v264l-271 -45q-195 -31 -194 -184v-17zM608 1309v235h238v-235h-238z" />
<glyph unicode="&#xe5;" horiz-adv-x="1075" d="M82 283v20q0 162 98.5 236.5t268.5 99.5l301 47v16q0 127 -48.5 185.5t-169.5 58.5q-215 0 -215 -219h-194v18q0 154 94 259.5t322 105.5q225 0 320 -105.5t95 -302.5v-395l15 -307h-178l-21 139q-131 -164 -369 -164q-156 0 -237.5 85t-81.5 223zM285 307q0 -68 46 -114 t136 -46q188 0 283 142v264l-271 -45q-195 -31 -194 -184v-17zM338 1421q0 82 58.5 141.5t142.5 59.5t142 -59.5t58 -141.5q0 -84 -58 -143t-142 -59t-142.5 59t-58.5 143zM428 1421q0 -47 33 -79.5t78 -32.5t77.5 32.5t32.5 79.5q0 45 -32.5 78t-77.5 33t-78 -33t-33 -78z " />
<glyph unicode="&#xe6;" horiz-adv-x="1775" d="M82 283v20q0 162 99.5 236.5t269.5 99.5l299 47v16q0 127 -48.5 185.5t-169.5 58.5q-215 0 -215 -219h-194v18q0 154 94 259.5t322 105.5q260 0 340 -170q113 170 348 170t353 -149.5t118 -393.5v-102h-742q10 -326 283 -326q127 0 195.5 63.5t68.5 145.5h195v-8 q0 -147 -121 -256t-338 -109q-268 0 -395 187q-164 -186 -430 -187q-162 0 -247 85t-85 223zM285 303q0 -68 46 -114t136 -46q203 0 293 158l14 16q-25 92 -24 201v31l-271 -45q-195 -33 -194 -185v-16zM956 621h535q-12 325 -268 325t-267 -325z" />
<glyph unicode="&#xe7;" horiz-adv-x="1071" d="M86 514v57q0 242 116.5 390.5t350.5 148.5q213 0 323.5 -112.5t110.5 -274.5v-43h-196q0 115 -57.5 182.5t-176.5 67.5q-133 0 -198.5 -94.5t-65.5 -264.5v-57q0 -170 65.5 -264t198.5 -94q119 0 176.5 64.5t57.5 164.5h196v-37q0 -145 -95 -249.5t-280 -121.5l-30 -79 q90 -2 149.5 -43t59.5 -123q0 -168 -224 -168q-126 0 -198 45l37 106q57 -33 143 -32q111 0 110 59q0 55 -116 55l-66 -6l-35 51l52 138q-205 18 -306.5 162.5t-101.5 371.5z" />
<glyph unicode="&#xe8;" horiz-adv-x="1122" d="M86 518v49q0 242 122 392.5t357 150.5q233 0 352 -150.5t119 -392.5v-102h-743q12 -326 285 -326q125 0 193.5 63.5t68.5 145.5h196v-8q0 -147 -120.5 -256t-340.5 -109q-244 0 -366.5 150.5t-122.5 392.5zM258 1597h225l187 -354h-209zM293 621h536q-12 325 -268 325 q-258 0 -268 -325z" />
<glyph unicode="&#xe9;" horiz-adv-x="1122" d="M86 518v49q0 242 122 392.5t357 150.5q233 0 352 -150.5t119 -392.5v-102h-743q12 -326 285 -326q125 0 193.5 63.5t68.5 145.5h196v-8q0 -147 -120.5 -256t-340.5 -109q-244 0 -366.5 150.5t-122.5 392.5zM293 621h536q-12 325 -268 325q-258 0 -268 -325zM461 1243 l186 354h225l-202 -354h-209z" />
<glyph unicode="&#xea;" horiz-adv-x="1122" d="M86 518v49q0 242 122 392.5t357 150.5q233 0 352 -150.5t119 -392.5v-102h-743q12 -326 285 -326q125 0 193.5 63.5t68.5 145.5h196v-8q0 -147 -120.5 -256t-340.5 -109q-244 0 -366.5 150.5t-122.5 392.5zM199 1243l270 354h193l270 -354h-193l-174 209l-174 -209h-192z M293 621h536q-12 325 -268 325q-258 0 -268 -325z" />
<glyph unicode="&#xeb;" horiz-adv-x="1122" d="M86 518v49q0 242 122 392.5t357 150.5q233 0 352 -150.5t119 -392.5v-102h-743q12 -326 285 -326q125 0 193.5 63.5t68.5 145.5h196v-8q0 -147 -120.5 -256t-340.5 -109q-244 0 -366.5 150.5t-122.5 392.5zM258 1309v235h238v-235h-238zM293 621h536q-12 325 -268 325 q-258 0 -268 -325zM635 1309v235h237v-235h-237z" />
<glyph unicode="&#xec;" horiz-adv-x="479" d="M-68 1597h226l186 -354h-209zM135 0v1085h209v-1085h-209z" />
<glyph unicode="&#xed;" horiz-adv-x="479" d="M135 0v1085h209v-1085h-209zM135 1243l187 354h225l-203 -354h-209z" />
<glyph unicode="&#xee;" horiz-adv-x="479" d="M-127 1243l270 354h193l270 -354h-192l-174 209l-174 -209h-193zM135 0v1085h209v-1085h-209z" />
<glyph unicode="&#xef;" horiz-adv-x="479" d="M-68 1309v235h238v-235h-238zM135 0v1085h209v-1085h-209zM309 1309v235h238v-235h-238z" />
<glyph unicode="&#xf0;" horiz-adv-x="1122" d="M86 514v57q0 240 114.5 389.5t336.5 149.5q129 0 223 -59q-43 102 -115 180q-59 63 -133 110l-354 -200v135l229 131q-123 50 -301 70v186q311 -25 508 -137l244 137v-137l-133 -76q61 -53 102 -100q229 -264 229 -779v-57q0 -242 -118.5 -390.5t-356 -148.5 t-356.5 148.5t-119 390.5zM293 514q0 -168 66.5 -263t201.5 -95t201.5 95t66.5 263v57q0 168 -66.5 263.5t-201.5 95.5t-201.5 -95.5t-66.5 -263.5v-57z" />
<glyph unicode="&#xf1;" horiz-adv-x="1116" d="M113 1085h176l22 -149q117 174 359 174q164 0 247.5 -99.5t83.5 -258.5v-752h-202v719q0 102 -52.5 156.5t-152.5 54.5q-172 0 -262 -146v-784h-205v778zM213 1321q0 127 51 189.5t135 62.5q72 0 168.5 -55.5t130.5 -55.5q70 0 70 84h150q0 -127 -51.5 -189.5 t-135.5 -62.5q-72 0 -168 55.5t-131 55.5q-70 0 -70 -84h-149z" />
<glyph unicode="&#xf2;" horiz-adv-x="1122" d="M86 514v57q0 242 119 390.5t356.5 148.5t356 -148.5t118.5 -390.5v-57q0 -242 -118.5 -390.5t-356 -148.5t-356.5 148.5t-119 390.5zM254 1597h225l187 -354h-209zM293 514q0 -168 66.5 -263t201.5 -95t201.5 95t66.5 263v57q0 168 -66.5 263.5t-201.5 95.5t-201.5 -95.5 t-66.5 -263.5v-57z" />
<glyph unicode="&#xf3;" horiz-adv-x="1122" d="M86 514v57q0 242 119 390.5t356.5 148.5t356 -148.5t118.5 -390.5v-57q0 -242 -118.5 -390.5t-356 -148.5t-356.5 148.5t-119 390.5zM293 514q0 -168 66.5 -263t201.5 -95t201.5 95t66.5 263v57q0 168 -66.5 263.5t-201.5 95.5t-201.5 -95.5t-66.5 -263.5v-57zM457 1243 l186 354h225l-202 -354h-209z" />
<glyph unicode="&#xf4;" horiz-adv-x="1122" d="M86 514v57q0 242 119 390.5t356.5 148.5t356 -148.5t118.5 -390.5v-57q0 -242 -118.5 -390.5t-356 -148.5t-356.5 148.5t-119 390.5zM195 1243l270 354h192l271 -354h-193l-174 209l-174 -209h-192zM293 514q0 -168 66.5 -263t201.5 -95t201.5 95t66.5 263v57 q0 168 -66.5 263.5t-201.5 95.5t-201.5 -95.5t-66.5 -263.5v-57z" />
<glyph unicode="&#xf5;" horiz-adv-x="1122" d="M86 514v57q0 242 119 390.5t356.5 148.5t356 -148.5t118.5 -390.5v-57q0 -242 -118.5 -390.5t-356 -148.5t-356.5 148.5t-119 390.5zM209 1321q0 127 51 189.5t135 62.5q72 0 168 -55.5t131 -55.5q70 0 70 84h149q0 -127 -51 -189.5t-135 -62.5q-72 0 -168 55.5 t-131 55.5q-70 0 -70 -84h-149zM293 514q0 -168 66.5 -263t201.5 -95t201.5 95t66.5 263v57q0 168 -66.5 263.5t-201.5 95.5t-201.5 -95.5t-66.5 -263.5v-57z" />
<glyph unicode="&#xf6;" horiz-adv-x="1122" d="M86 514v57q0 242 119 390.5t356.5 148.5t356 -148.5t118.5 -390.5v-57q0 -242 -118.5 -390.5t-356 -148.5t-356.5 148.5t-119 390.5zM254 1309v235h238v-235h-238zM293 514q0 -168 66.5 -263t201.5 -95t201.5 95t66.5 263v57q0 168 -66.5 263.5t-201.5 95.5t-201.5 -95.5 t-66.5 -263.5v-57zM631 1309v235h237v-235h-237z" />
<glyph unicode="&#xf7;" d="M94 705v188h1041v-188h-1041zM496 244v235h237v-235h-237zM496 1118v236h237v-236h-237z" />
<glyph unicode="&#xf8;" horiz-adv-x="1122" d="M86 0l107 139q-106 139 -107 375v57q0 242 119 390.5t356 148.5q176 0 295 -92l51 67h129l-106 -141q106 -143 106 -373v-57q0 -242 -118.5 -390.5t-356.5 -148.5q-180 0 -297 91l-49 -66h-129zM293 514q0 -119 31 -199l413 547q-68 68 -176 68q-135 0 -201.5 -95.5 t-66.5 -263.5v-57zM383 223q68 -68 178 -67q135 0 201.5 95t66.5 263v57q0 119 -32 199z" />
<glyph unicode="&#xf9;" horiz-adv-x="1116" d="M115 334v751h204v-718q0 -102 52.5 -156.5t150.5 -54.5q168 0 264 145v784h205v-778l15 -307h-179l-22 150q-117 -174 -359 -175q-162 0 -246.5 100.5t-84.5 258.5zM246 1597h225l186 -354h-208z" />
<glyph unicode="&#xfa;" horiz-adv-x="1116" d="M115 334v751h204v-718q0 -102 52.5 -156.5t150.5 -54.5q168 0 264 145v784h205v-778l15 -307h-179l-22 150q-117 -174 -359 -175q-162 0 -246.5 100.5t-84.5 258.5zM449 1243l186 354h225l-203 -354h-208z" />
<glyph unicode="&#xfb;" horiz-adv-x="1116" d="M115 334v751h204v-718q0 -102 52.5 -156.5t150.5 -54.5q168 0 264 145v784h205v-778l15 -307h-179l-22 150q-117 -174 -359 -175q-162 0 -246.5 100.5t-84.5 258.5zM186 1243l271 354h192l271 -354h-193l-174 209l-174 -209h-193z" />
<glyph unicode="&#xfc;" horiz-adv-x="1116" d="M115 334v751h204v-718q0 -102 52.5 -156.5t150.5 -54.5q168 0 264 145v784h205v-778l15 -307h-179l-22 150q-117 -174 -359 -175q-162 0 -246.5 100.5t-84.5 258.5zM246 1309v235h237v-235h-237zM623 1309v235h237v-235h-237z" />
<glyph unicode="&#xfd;" horiz-adv-x="1038" d="M35 1085h221l274 -819l275 819h221l-387 -1038l-150 -457h-239l170 457zM426 1243l186 354h226l-203 -354h-209z" />
<glyph unicode="&#xfe;" horiz-adv-x="1126" d="M125 -410v2048h205v-667q104 139 299 139q211 0 311 -146.5t100 -392.5v-57q0 -246 -100 -392.5t-311 -146.5q-195 0 -299 140v-525h-205zM330 301q96 -145 245 -145q258 0 259 358v57q0 358 -259 359q-149 -1 -245 -146v-483z" />
<glyph unicode="&#xff;" horiz-adv-x="1038" d="M35 1085h221l274 -819l275 819h221l-387 -1038l-150 -457h-239l170 457zM223 1309v235h238v-235h-238zM600 1309v235h238v-235h-238z" />
<glyph unicode="&#x152;" horiz-adv-x="1925" d="M102 758v82q0 403 157 580t480 177h1104v-188h-708v-500h606v-188h-606v-533h708v-188h-1104q-324 0 -480.5 177t-156.5 581zM322 758q0 -301 104 -435.5t330 -134.5h166v1221h-166q-225 0 -329.5 -134t-104.5 -435v-82z" />
<glyph unicode="&#x153;" horiz-adv-x="1865" d="M86 514v57q0 242 119 390.5t356 148.5q258 0 373 -201q121 201 373 201q236 0 353.5 -149.5t117.5 -393.5v-102h-742q12 -326 283 -326q127 0 195.5 63.5t68.5 145.5h195v-8q0 -147 -121 -256t-338 -109q-266 0 -385 201q-115 -201 -373 -201q-238 0 -356.5 148.5 t-118.5 390.5zM293 514q0 -168 66.5 -263t201.5 -95t201.5 95t66.5 263v57q0 168 -66.5 263.5t-201.5 95.5t-201.5 -95.5t-66.5 -263.5v-57zM1036 621h537q-12 325 -268 325q-258 0 -269 -325z" />
<glyph unicode="&#x178;" horiz-adv-x="1216" d="M33 1597h231l344 -847l344 847h232l-469 -1112v-485h-213v485zM340 1749v168h203v-168h-203zM674 1749v168h203v-168h-203z" />
<glyph unicode="&#x2c6;" horiz-adv-x="1024" d="M145 1243l271 354h192l271 -354h-193l-174 209l-174 -209h-193z" />
<glyph unicode="&#x2dc;" horiz-adv-x="1024" d="M160 1321q0 127 51 189.5t135 62.5q72 0 168 -55.5t131 -55.5q70 0 70 84h149q0 -127 -51 -189.5t-135 -62.5q-72 0 -168 55.5t-131 55.5q-70 0 -70 -84h-149z" />
<glyph unicode="&#x2000;" horiz-adv-x="985" />
<glyph unicode="&#x2001;" horiz-adv-x="1970" />
<glyph unicode="&#x2002;" horiz-adv-x="985" />
<glyph unicode="&#x2003;" horiz-adv-x="1970" />
<glyph unicode="&#x2004;" horiz-adv-x="656" />
<glyph unicode="&#x2005;" horiz-adv-x="492" />
<glyph unicode="&#x2006;" horiz-adv-x="328" />
<glyph unicode="&#x2007;" horiz-adv-x="328" />
<glyph unicode="&#x2008;" horiz-adv-x="246" />
<glyph unicode="&#x2009;" horiz-adv-x="394" />
<glyph unicode="&#x200a;" horiz-adv-x="109" />
<glyph unicode="&#x2010;" horiz-adv-x="690" d="M82 625v184h526v-184h-526z" />
<glyph unicode="&#x2011;" horiz-adv-x="690" d="M82 625v184h526v-184h-526z" />
<glyph unicode="&#x2012;" horiz-adv-x="690" d="M82 625v184h526v-184h-526z" />
<glyph unicode="&#x2013;" horiz-adv-x="1024" d="M82 625v184h860v-184h-860z" />
<glyph unicode="&#x2014;" horiz-adv-x="2048" d="M82 625v184h1884v-184h-1884z" />
<glyph unicode="&#x2018;" horiz-adv-x="479" d="M123 1143v184q0 309 270 309v-114q-139 0 -155 -146h118v-233h-233z" />
<glyph unicode="&#x2019;" horiz-adv-x="479" d="M86 1104v115q139 0 156 145h-119v233h233v-184q0 -309 -270 -309z" />
<glyph unicode="&#x201a;" horiz-adv-x="479" d="M86 -145q139 0 156 145h-119v233h233v-184q0 -309 -270 -309v115z" />
<glyph unicode="&#x201c;" horiz-adv-x="827" d="M123 1143v184q0 309 270 309v-114q-139 0 -155 -146h118v-233h-233zM471 1143v184q0 309 270 309v-114q-139 0 -155 -146h119v-233h-234z" />
<glyph unicode="&#x201d;" horiz-adv-x="827" d="M86 1104v115q139 0 156 145h-119v233h233v-184q0 -309 -270 -309zM434 1104v115q139 0 156 145h-119v233h234v-184q0 -309 -271 -309z" />
<glyph unicode="&#x201e;" horiz-adv-x="827" d="M86 -145q139 0 156 145h-119v233h233v-184q0 -309 -270 -309v115zM434 -145q139 0 156 145h-119v233h234v-184q0 -309 -271 -309v115z" />
<glyph unicode="&#x2022;" horiz-adv-x="847" d="M135 428v578h578v-578h-578z" />
<glyph unicode="&#x2026;" horiz-adv-x="2048" d="M246 0v233h233v-233h-233zM907 0v233h234v-233h-234zM1569 0v233h233v-233h-233z" />
<glyph unicode="&#x202f;" horiz-adv-x="394" />
<glyph unicode="&#x2039;" horiz-adv-x="632" d="M102 600v193l428 309v-193l-278 -213l278 -213v-192z" />
<glyph unicode="&#x203a;" horiz-adv-x="632" d="M102 291v192l275 213l-275 213v193l428 -309v-193z" />
<glyph unicode="&#x205f;" horiz-adv-x="492" />
<glyph unicode="&#x20ac;" d="M68 526v189h143v86h-143v188h147q20 330 142 481.5t349.5 151.5t330 -130t102.5 -405v-63h-187q0 219 -53 314.5t-178 95.5h-16q-242 0 -275 -445h506l-90 -188h-420v-86h453l-93 -189h-348q49 -362 267 -362h16q231 0 231 348h187v-20q0 -260 -104.5 -388.5 t-327.5 -128.5q-213 0 -333 132t-153 419h-153z" />
<glyph unicode="&#x2122;" horiz-adv-x="1097" d="M37 1548v90h383v-90h-139v-463h-103v463h-141zM485 1085v553h154l102 -383l103 383h153v-553h-102v254l4 134l-102 -388h-111l-104 388l4 -134v-254h-101z" />
<glyph unicode="&#x25fc;" horiz-adv-x="1085" d="M0 0v1085h1085v-1085h-1085z" />
<glyph unicode="&#xfb01;" horiz-adv-x="1280" d="M55 903v182h170v226q0 352 348 352q111 0 160 -25v-172q-43 16 -112 17q-98 0 -144.5 -41t-46.5 -154v-203h283v-182h-283v-903h-205v903h-170zM924 1311v233h233v-233h-233zM938 0v1085h205v-1085h-205z" />
<glyph unicode="&#xfb02;" horiz-adv-x="1280" d="M55 903v182h170v226q0 352 348 352q111 0 160 -25v-172q-43 16 -112 17q-98 0 -144.5 -41t-46.5 -154v-203h283v-182h-283v-903h-205v903h-170zM938 0v1638h205v-1638h-205z" />
</font>
</defs>
</svg>
